<?xml version="1.0" encoding="UTF-8"?>
<!DOCTYPE svg PUBLIC "-//W3C//DTD SVG 1.1//EN" "http://www.w3.org/Graphics/SVG/1.1/DTD/svg11.dtd">
<!-- Creator: CorelDRAW -->
<svg xmlns="http://www.w3.org/2000/svg" xml:space="preserve" width="512px" height="512px" style="shape-rendering:geometricPrecision; text-rendering:geometricPrecision; image-rendering:optimizeQuality; fill-rule:evenodd; clip-rule:evenodd"
viewBox="0 0 610.516 610.515"
 xmlns:xlink="http://www.w3.org/1999/xlink">
 <defs>
  <style type="text/css">
   <![CDATA[
    .str0 {stroke:white;stroke-width:8.5988;stroke-linecap:round;stroke-linejoin:round}
    .fil2 {fill:none}
    .fil0 {fill:black}
    .fil1 {fill:white;fill-rule:nonzero}
   ]]>
  </style>
 </defs>
 <g id="Vrstva_x0020_1">
  <metadata id="CorelCorpID_0Corel-Layer"/>
  <circle class="fil0" cx="305.257" cy="305.257" r="305.257"/>
  <path class="fil1" d="M229.872 485.935l0 -15.4383 30.4036 0 0 -55.7667 -26.4654 0 0 -15.4383 43.006 0 0 71.2049 27.8842 0 0 15.4383 -74.8285 0zm37.0195 -101.609c-3.67513,0 -6.61592,-0.971664 -8.82065,-2.91499 -2.20645,-1.94333 -3.30882,-4.54189 -3.30882,-7.79739 0,-3.36041 1.10237,-6.01228 3.30882,-7.95561 2.20473,-1.94333 5.14552,-2.91499 8.82065,-2.91499 3.67685,0 6.61764,0.971664 8.82237,2.91499 2.20473,1.94333 3.30882,4.5952 3.30882,7.95561 0,3.25551 -1.10409,5.85406 -3.30882,7.79739 -2.20473,1.94333 -5.14552,2.91499 -8.82237,2.91499z"/>
  <path id="1" class="fil1" d="M358.892 487.352c-7.14216,0 -13.3385,-1.36377 -18.5889,-4.09475 -5.25215,-2.73098 -9.2953,-6.61764 -12.1312,-11.6583 -2.83588,-5.04062 -4.25297,-10.9738 -4.25297,-17.8012l0 -22.3689c0,-6.93235 1.41708,-12.8913 4.25297,-17.8803 2.83588,-4.98902 6.87904,-8.84816 12.1312,-11.5791 5.25043,-2.73098 11.4467,-4.09647 18.5889,-4.09647 7.14044,0 13.3367,1.36549 18.5889,4.09647 5.25043,2.73098 9.29358,6.59012 12.1295,11.5791 2.83588,4.98902 4.25297,10.948 4.25297,17.8803l0 22.3689c0,6.82745 -1.41708,12.7606 -4.25297,17.8012 -2.83588,5.04062 -6.87904,8.92727 -12.1295,11.6583 -5.25215,2.73098 -11.4484,4.09475 -18.5889,4.09475zm0 -14.9653c5.77495,0 10.2394,-1.6011 13.39,-4.80501 3.1506,-3.20219 4.7259,-7.79739 4.7259,-13.7839l0 -22.3689c0,-6.09139 -1.5753,-10.7124 -4.7259,-13.863 -3.1506,-3.1506 -7.6151,-4.7259 -13.39,-4.7259 -5.67177,0 -10.1087,1.5753 -13.3127,4.7259 -3.20219,3.1506 -4.80501,7.77159 -4.80501,13.863l0 22.3689c0,5.98648 1.60282,10.5817 4.80501,13.7839 3.20391,3.20391 7.64089,4.80501 13.3127,4.80501z"/>
  <path class="fil1" d="M294.701 550.363l-6.7191 -20.3052 4.06035 0 4.17214 12.9945c0.271722,0.763573 0.510769,1.53231 0.720579,2.30792 0.209811,0.775612 0.362869,1.38441 0.460896,1.8281 0.123823,-0.443698 0.290639,-1.05249 0.49873,-1.8281 0.209811,-0.775612 0.424781,-1.54434 0.64663,-2.30792l4.09819 -12.9945 4.02424 0 -6.7191 20.3052 -5.24355 0z"/>
  <path id="1" class="fil1" d="M311.538 550.363l0 -3.95029 8.34427 -8.60224c1.2795,-1.32937 2.22021,-2.52977 2.82385,-3.59946 0.601916,-1.07141 0.904594,-2.13594 0.904594,-3.19359 0,-1.37925 -0.374908,-2.46098 -1.12644,-3.24863 -0.749815,-0.78765 -1.77823,-1.18147 -3.08353,-1.18147 -1.4274,0 -2.55212,0.411023 -3.37761,1.23651 -0.823765,0.823765 -1.23651,1.95021 -1.23651,3.37761l-3.98812 0c0.049873,-1.67333 0.43166,-3.11964 1.14536,-4.33723 0.7137,-1.21931 1.71116,-2.16002 2.99066,-2.82557 1.2795,-0.663827 2.78085,-0.995741 4.50405,-0.995741 1.64925,0 3.08869,0.319875 4.32004,0.959626 1.22963,0.639751 2.17722,1.53747 2.84276,2.69486 0.663827,1.1574 0.995741,2.52289 0.995741,4.09819 0,1.59938 -0.411023,3.16264 -1.23651,4.68807 -0.823765,1.52715 -2.17206,3.22455 -4.04316,5.09565l-6.09139 6.16534 11.7786 0 0 3.61837 -16.4667 0z"/>
  <path class="fil2 str0" d="M206.861 105.459l196.796 0c9.47244,0 17.1976,7.72516 17.1976,17.1976l0 196.789c0,9.47244 -7.72516,17.1976 -17.1976,17.1976l-196.796 0c-9.47244,0 -17.1976,-7.72516 -17.1976,-17.1976l0 -196.789c0,-9.47244 7.72516,-17.1976 17.1976,-17.1976zm11.0202 28.2178l174.755 0 0 119.396 -55.0598 0 0 28.2178 -65.2339 0 0 -28.2178 -54.4614 0 0 -119.396zm75.5559 0l0 34.3952m-27.5162 -34.3952l0 34.3952m55.0323 -34.3952l0 34.3952m27.5162 -34.3952l0 34.3952"/>
 </g>
</svg>
